<svg xmlns="http://www.w3.org/2000/svg" fill="none" viewBox="0 0 938 52"><path d="M15.048 28.3v-5.896l.611-1.272 3.057-2.422a.618.618 0 0 1 1.019.479v11.573a.628.628 0 0 1-1.033.479L15.048 28.3Z" fill="#00AC47"></path><path d="M4.934 16.96.001 21.893h4.933V16.96Z" fill="#EA4335"></path><path d="M4.934 21.894H.001v6.413h4.933v-6.413Z" fill="#2684FC"></path><path d="M0 28.308v3.288c0 .905.74 1.645 1.645 1.645h3.29v-4.933H0Z" fill="#0066DA"></path><path d="M15.664 18.585c0-.893-.724-1.625-1.61-1.625h-9.12v4.933h6.043V25.1l4.687-.147v-6.367Z" fill="#FFBA00"></path><path d="M10.977 28.306H4.934v4.934h9.12c.886 0 1.61-.73 1.61-1.623V25.1h-4.687v3.206Z" fill="#00AC47"></path><path d="M15.664 21.153V28.8l-4.687-3.7 4.687-3.947Z" fill="#00832D"></path><path d="M84.879 31.071h-1.453V19.768h1.453l3.93 6.883h.064l3.93-6.883h1.453V31.07h-1.452v-6.71l.063-1.894h-.063l-3.537 6.205h-.852l-3.536-6.205h-.064l.064 1.895v6.71Zm14.872.253c-1.136 0-2.073-.39-2.81-1.168-.737-.78-1.105-1.763-1.105-2.953 0-1.178.358-2.157 1.073-2.936.716-.79 1.632-1.184 2.747-1.184 1.148 0 2.058.374 2.732 1.121.684.737 1.026 1.774 1.026 3.11l-.016.158H97.32c.02.758.274 1.368.758 1.831a2.425 2.425 0 0 0 1.736.695c.927 0 1.653-.463 2.179-1.39l1.294.632a3.838 3.838 0 0 1-1.452 1.531c-.61.369-1.305.553-2.084.553Zm-2.32-5.052h4.436a1.893 1.893 0 0 0-.663-1.326c-.39-.358-.916-.537-1.58-.537-.546 0-1.02.169-1.42.505-.39.337-.647.79-.773 1.358Zm10.861 5.052c-1.137 0-2.073-.39-2.81-1.168-.737-.78-1.105-1.763-1.105-2.953 0-1.178.358-2.157 1.073-2.936.716-.79 1.632-1.184 2.747-1.184 1.148 0 2.058.374 2.732 1.121.684.737 1.026 1.774 1.026 3.11l-.016.158h-6.078c.021.758.274 1.368.758 1.831a2.424 2.424 0 0 0 1.736.695c.927 0 1.653-.463 2.179-1.39l1.294.632a3.838 3.838 0 0 1-1.452 1.531c-.61.369-1.305.553-2.084.553Zm-2.321-5.052h4.437a1.893 1.893 0 0 0-.663-1.326c-.39-.358-.916-.537-1.579-.537-.548 0-1.021.169-1.421.505-.389.337-.647.79-.774 1.358Zm10.143 4.926c-.631 0-1.157-.195-1.578-.585-.411-.389-.621-.93-.632-1.626v-4.325h-1.358v-1.326h1.358v-2.368h1.453v2.368h1.894v1.326h-1.894v3.852c0 .515.099.868.3 1.058a.99.99 0 0 0 .678.268 1.7 1.7 0 0 0 .332-.032c.108-.028.213-.065.316-.11l.457 1.294c-.378.137-.82.206-1.326.206Zm-80.575-4.916v-1.726h5.776c.06.304.094.666.094 1.058 0 1.294-.355 2.897-1.494 4.037-1.11 1.155-2.526 1.772-4.405 1.772-3.482 0-6.408-2.835-6.408-6.317s2.926-6.317 6.408-6.317c1.925 0 3.296.755 4.328 1.74l-1.217 1.218c-.74-.694-1.74-1.232-3.111-1.232-2.542 0-4.53 2.049-4.53 4.59 0 2.543 1.988 4.592 4.53 4.592 1.648 0 2.587-.662 3.188-1.263.49-.49.812-1.192.937-2.152h-4.096Zm14.671 1.073c0 2.342-1.833 4.068-4.081 4.068-2.25 0-4.082-1.726-4.082-4.067 0-2.358 1.833-4.068 4.082-4.068 2.249 0 4.081 1.71 4.081 4.067Zm-1.786 0c0-1.463-1.063-2.465-2.295-2.465s-2.295 1.002-2.295 2.465c0 1.448 1.062 2.465 2.295 2.465 1.232 0 2.295-1.016 2.295-2.465Zm10.691 0c0 2.342-1.833 4.068-4.082 4.068-2.249 0-4.082-1.726-4.082-4.067 0-2.358 1.833-4.068 4.082-4.068 2.25 0 4.082 1.71 4.082 4.067Zm-1.787 0c0-1.463-1.062-2.465-2.295-2.465-1.232 0-2.295 1.002-2.295 2.465 0 1.448 1.063 2.465 2.295 2.465 1.233 0 2.295-1.016 2.295-2.465Zm10.322-3.821v7.303c0 3.004-1.771 4.237-3.866 4.237-1.972 0-3.157-1.325-3.604-2.403l1.555-.648c.278.663.955 1.449 2.049 1.449 1.34 0 2.172-.832 2.172-2.388v-.586h-.062c-.4.493-1.17.924-2.14.924-2.034 0-3.898-1.771-3.898-4.052 0-2.296 1.864-4.083 3.897-4.083.97 0 1.74.432 2.141.91h.062v-.663h1.694Zm-1.57 3.837c0-1.433-.956-2.481-2.173-2.481-1.232 0-2.264 1.048-2.264 2.48 0 1.418 1.032 2.45 2.264 2.45 1.217 0 2.172-1.032 2.172-2.45Zm4.597-8.11v11.915H68.89V19.26h1.787Zm6.9 9.434 1.386.925c-.447.662-1.525 1.802-3.39 1.802-2.31 0-4.035-1.787-4.035-4.067 0-2.42 1.74-4.068 3.835-4.068 2.11 0 3.143 1.68 3.482 2.589l.185.462-5.438 2.25c.416.816 1.063 1.232 1.972 1.232s1.54-.447 2.002-1.125Zm-4.267-1.463 3.634-1.51c-.2-.508-.8-.863-1.51-.863-.907 0-2.17.801-2.124 2.373Z" fill="#fff"></path><path d="M135.094 37.063v-22.09" stroke="#3D4144" stroke-width=".85"></path><path d="M154.967 22.112h-2.699v-1.48h7.058v1.48h-2.699v8.906h-1.66v-8.906Zm5.648 6.073c.01.341.092.648.244.92.152.273.375.489.669.646.299.152.663.228 1.093.228.373 0 .692-.05.96-.15.273-.104.498-.228.677-.37.178-.146.309-.282.393-.408l.747 1.015c-.162.22-.367.417-.613.59a2.815 2.815 0 0 1-.921.4c-.362.1-.81.15-1.345.15-.703 0-1.314-.144-1.833-.432a3.046 3.046 0 0 1-1.212-1.22c-.283-.524-.425-1.138-.425-1.84 0-.63.131-1.197.394-1.7a2.93 2.93 0 0 1 1.14-1.204c.504-.294 1.107-.44 1.81-.44.656 0 1.225.13 1.707.393.483.262.855.64 1.117 1.133.268.488.402 1.078.402 1.77 0 .042-.003.128-.008.26 0 .13-.005.217-.016.26h-4.98Zm3.43-1.227a1.384 1.384 0 0 0-.173-.574 1.432 1.432 0 0 0-.511-.559c-.236-.163-.551-.244-.944-.244-.404 0-.732.079-.984.236a1.512 1.512 0 0 0-.558.55 1.55 1.55 0 0 0-.213.59h3.383Zm8.134 4.06v-1.196c-.042.126-.163.299-.362.519-.194.22-.462.42-.802.598-.336.178-.735.267-1.196.267a3.115 3.115 0 0 1-1.629-.432 3.08 3.08 0 0 1-1.141-1.204c-.278-.514-.417-1.107-.417-1.778 0-.672.139-1.264.417-1.778a3.08 3.08 0 0 1 1.141-1.204 3.073 3.073 0 0 1 1.629-.44c.451 0 .842.078 1.172.236.33.157.595.338.795.542.204.205.33.383.377.535v-1.125h1.668v6.46h-1.652Zm-3.887-3.226c0 .414.092.776.276 1.086.183.31.422.548.716.716.299.167.619.251.96.251a1.83 1.83 0 0 0 1.652-.975c.168-.31.251-.669.251-1.078 0-.41-.083-.766-.251-1.07a1.803 1.803 0 0 0-.677-.724 1.79 1.79 0 0 0-.975-.267c-.341 0-.661.086-.96.26a1.946 1.946 0 0 0-.716.715c-.184.31-.276.672-.276 1.086Zm15.366-3.423c.482 0 .897.103 1.243.307.351.205.621.52.81.945.194.424.291.967.291 1.628v3.769h-1.66v-3.47c0-.624-.089-1.099-.267-1.424-.173-.325-.501-.488-.984-.488-.262 0-.508.071-.739.213a1.522 1.522 0 0 0-.559.637c-.136.278-.204.632-.204 1.062v3.47h-1.558v-3.47c0-.624-.108-1.099-.323-1.424-.209-.325-.524-.488-.944-.488a1.4 1.4 0 0 0-.739.205 1.43 1.43 0 0 0-.543.63c-.136.282-.205.642-.205 1.077v3.47h-1.668v-6.46h1.668v.968c.058-.163.187-.333.386-.511.204-.179.459-.33.763-.457.304-.125.637-.189.999-.189.394 0 .719.074.976.22.262.142.469.32.621.536.158.215.273.43.346.645.074-.215.215-.43.425-.645a2.62 2.62 0 0 1 .803-.535c.32-.147.674-.22 1.062-.22Zm16.181 0c.482 0 .896.103 1.243.307.351.205.621.52.81.945.194.424.291.967.291 1.628v3.769h-1.66v-3.47c0-.624-.089-1.099-.267-1.424-.174-.325-.501-.488-.984-.488-.262 0-.509.071-.739.213a1.522 1.522 0 0 0-.559.637c-.136.278-.205.632-.205 1.062v3.47h-1.557v-3.47c0-.624-.108-1.099-.323-1.424-.21-.325-.524-.488-.944-.488-.268 0-.514.068-.74.205a1.435 1.435 0 0 0-.542.63c-.137.282-.205.642-.205 1.077v3.47h-1.668v-6.46h1.668v.968c.058-.163.186-.333.385-.511.205-.179.459-.33.764-.457.304-.125.637-.189.999-.189.393 0 .718.074.975.22.263.142.47.32.622.536.157.215.273.43.346.645.074-.215.215-.43.425-.645.215-.215.482-.394.802-.535.32-.147.674-.22 1.063-.22Zm5.246 3.816c.01.341.092.648.244.92.152.273.375.489.668.646.299.152.664.228 1.094.228.372 0 .692-.05.96-.15.273-.104.498-.228.676-.37.179-.146.31-.282.394-.408l.747 1.015c-.162.22-.367.417-.613.59a2.815 2.815 0 0 1-.921.4c-.362.1-.81.15-1.345.15-.703 0-1.314-.144-1.833-.432a3.046 3.046 0 0 1-1.212-1.22c-.283-.524-.425-1.138-.425-1.84 0-.63.131-1.197.394-1.7a2.93 2.93 0 0 1 1.14-1.204c.504-.294 1.107-.44 1.81-.44.656 0 1.225.13 1.707.393.483.262.855.64 1.117 1.133.268.488.402 1.078.402 1.77 0 .042-.003.128-.008.26 0 .13-.006.217-.016.26h-4.98Zm3.43-1.227a1.384 1.384 0 0 0-.173-.574 1.432 1.432 0 0 0-.511-.559c-.236-.163-.551-.244-.945-.244-.403 0-.731.079-.983.236a1.523 1.523 0 0 0-.559.55c-.12.21-.191.407-.212.59h3.383Zm4.161 1.227c.01.341.092.648.244.92.152.273.375.489.668.646.299.152.664.228 1.094.228.372 0 .692-.05.96-.15.273-.104.498-.228.676-.37.179-.146.31-.282.394-.408l.747 1.015c-.162.22-.367.417-.613.59a2.815 2.815 0 0 1-.921.4c-.362.1-.81.15-1.345.15-.703 0-1.314-.144-1.833-.432a3.04 3.04 0 0 1-1.212-1.22c-.283-.524-.425-1.138-.425-1.84 0-.63.131-1.197.393-1.7.263-.509.643-.91 1.141-1.204.504-.294 1.107-.44 1.81-.44.655 0 1.225.13 1.707.393.483.262.855.64 1.117 1.133.268.488.401 1.078.401 1.77 0 .042-.002.128-.007.26 0 .13-.006.217-.016.26h-4.98Zm3.43-1.227a1.384 1.384 0 0 0-.173-.574 1.432 1.432 0 0 0-.511-.559c-.237-.163-.551-.244-.945-.244-.403 0-.731.079-.983.236a1.523 1.523 0 0 0-.559.55c-.12.21-.191.407-.212.59h3.383Zm2.453-2.4h1.212v-2.651h1.668v2.651h1.597v1.416h-1.597v2.762c0 .346.058.606.173.779.121.173.291.26.511.26.184 0 .328-.035.433-.103.11-.068.176-.115.197-.141l.621 1.22a1.291 1.291 0 0 1-.275.156 3.302 3.302 0 0 1-1.416.3c-.546 0-1.002-.163-1.369-.488-.362-.326-.543-.834-.543-1.527v-3.218h-1.212v-1.416Zm6.04 6.46v-6.46h1.676v6.46h-1.676Zm.857-8.395a.997.997 0 0 1-.731-.307 1.01 1.01 0 0 1-.299-.732c0-.283.099-.527.299-.731a.985.985 0 0 1 .731-.315c.189 0 .362.05.52.15.162.094.291.22.385.377.1.152.15.325.15.52 0 .283-.103.527-.307.731a1.019 1.019 0 0 1-.748.307Zm6.645 1.746c.435 0 .857.09 1.266.268a2.3 2.3 0 0 1 1.007.858c.268.388.402.894.402 1.518v4.005h-1.692V27.32c0-.582-.139-1.01-.417-1.283-.273-.277-.627-.416-1.062-.416-.288 0-.564.08-.826.243a1.95 1.95 0 0 0-.645.661 1.862 1.862 0 0 0-.244.96v3.533h-1.684v-6.46h1.684v1.086c.047-.178.173-.364.378-.558.209-.2.474-.368.794-.504.32-.142.666-.213 1.039-.213Zm7.536 10.102c-.493 0-.952-.05-1.377-.15a3.905 3.905 0 0 1-1.125-.432 2.544 2.544 0 0 1-.802-.7l1.046-1.038c.11.136.252.277.425.424.173.152.401.278.684.378.284.105.643.157 1.078.157.425 0 .787-.086 1.086-.26.304-.172.535-.411.692-.715.163-.3.244-.645.244-1.039V30.9h1.652v.299c0 .713-.16 1.31-.479 1.793a2.99 2.99 0 0 1-1.299 1.102 4.304 4.304 0 0 1-1.825.377Zm1.951-3.453v-1.196c-.042.126-.162.299-.362.519-.194.22-.461.42-.802.598-.336.178-.734.267-1.196.267a3.115 3.115 0 0 1-1.629-.432 3.078 3.078 0 0 1-1.14-1.204c-.278-.514-.417-1.107-.417-1.778 0-.672.139-1.264.417-1.778a3.078 3.078 0 0 1 1.14-1.204 3.073 3.073 0 0 1 1.629-.44c.451 0 .842.078 1.172.236.331.157.596.338.795.542.204.205.33.383.378.535v-1.125h1.667v6.46h-1.652Zm-3.886-3.226c0 .414.091.776.275 1.086.184.31.422.548.716.716.299.167.619.251.96.251a1.83 1.83 0 0 0 1.652-.975c.168-.31.252-.669.252-1.078 0-.41-.084-.766-.252-1.07a1.803 1.803 0 0 0-.677-.724 1.79 1.79 0 0 0-.975-.267 1.954 1.954 0 0 0-1.676.976c-.184.309-.275.67-.275 1.085Z" fill="#fff"></path><rect x="316.359" y="9.874" width="52.678" height="32.287" rx="16.143" fill="#272829"></rect><circle cx="352.894" cy="26.017" r="16.143" fill="#3C4043"></circle><path d="M352.892 19.972c-.401 0-.785.175-1.069.488a1.758 1.758 0 0 0-.442 1.178v4.442c0 .442.159.866.442 1.178.284.313.668.488 1.069.488.401 0 .786-.175 1.069-.488.284-.312.443-.736.443-1.178v-4.442c0-.442-.159-.866-.443-1.178a1.444 1.444 0 0 0-1.069-.488Z" fill="#fff" stroke="#fff" stroke-width=".864" stroke-linecap="round" stroke-linejoin="round"></path><path d="M356.78 24.72v1.152c0 1.07-.409 2.095-1.138 2.85a3.819 3.819 0 0 1-2.749 1.182 3.819 3.819 0 0 1-2.749-1.181 4.108 4.108 0 0 1-1.138-2.85V24.72M352.894 29.906v2.16" stroke="#fff" stroke-width="1.274" stroke-linecap="round" stroke-linejoin="round"></path><path d="m325.471 27.44 3.569-3.568 3.568 3.568" stroke="#fff" stroke-opacity=".7" stroke-width="1.699" stroke-linecap="round"></path><rect x="379.234" y="9.874" width="52.678" height="32.287" rx="16.143" fill="#272829"></rect><circle cx="415.769" cy="26.017" r="16.143" fill="#3C4043"></circle><path d="m388.347 27.44 3.569-3.568 3.568 3.568" stroke="#fff" stroke-opacity=".7" stroke-width="1.699" stroke-linecap="round"></path><path d="m421.637 23.836-1.817 2.393 1.817 2.393v-4.786Z" fill="#fff" stroke="#fff" stroke-width=".864" stroke-linecap="round" stroke-linejoin="round"></path><path d="M417.762 21.275h-6.651c-.668 0-1.21.606-1.21 1.354v6.772c0 .748.542 1.355 1.21 1.355h6.651c.668 0 1.21-.607 1.21-1.355V22.63c0-.748-.542-1.354-1.21-1.354Z" stroke="#fff" stroke-width="1.274" stroke-linecap="round" stroke-linejoin="round"></path><rect x="442.108" y="9.874" width="32.287" height="32.287" rx="16.143" fill="#3C4043"></rect><rect x="451.666" y="20.707" width="13.17" height="10.621" rx="1.522" stroke="#fff" stroke-width="1.274"></rect><path d="M456.296 27.478c.234 0 .447-.035.638-.104.194-.068.338-.136.432-.202l.49.97c-.12.103-.325.206-.616.31a3.02 3.02 0 0 1-1.028.157c-.372 0-.722-.065-1.048-.195a2.726 2.726 0 0 1-.864-.546 2.657 2.657 0 0 1-.585-.83 2.547 2.547 0 0 1-.21-1.036 2.573 2.573 0 0 1 .791-1.873c.25-.238.538-.421.864-.551a2.79 2.79 0 0 1 1.052-.2c.397 0 .74.053 1.028.158.291.104.496.207.616.31l-.49.97a1.669 1.669 0 0 0-.432-.202 1.87 1.87 0 0 0-.638-.103c-.26 0-.487.04-.681.122a1.346 1.346 0 0 0-.776.803c-.064.176-.095.36-.095.554 0 .197.031.384.095.562a1.388 1.388 0 0 0 .776.807c.194.08.421.119.681.119Zm4.928 0c.235 0 .448-.035.639-.104.194-.068.338-.136.432-.202l.489.97c-.119.103-.325.206-.615.31a3.022 3.022 0 0 1-1.029.157 2.8 2.8 0 0 1-1.047-.195 2.704 2.704 0 0 1-.864-.546 2.531 2.531 0 0 1-.796-1.866 2.573 2.573 0 0 1 .792-1.873c.25-.238.538-.421.864-.551a2.785 2.785 0 0 1 1.051-.2c.398 0 .741.053 1.029.158.29.104.496.207.615.31l-.489.97a1.669 1.669 0 0 0-.432-.202 1.873 1.873 0 0 0-.639-.103c-.26 0-.486.04-.68.122a1.341 1.341 0 0 0-.776.803 1.651 1.651 0 0 0 0 1.116 1.373 1.373 0 0 0 .776.807c.194.08.42.119.68.119Z" fill="#fff"></path><path fill-rule="evenodd" clip-rule="evenodd" d="M500.734 42.16c8.915 0 16.143-7.227 16.143-16.143s-7.228-16.143-16.143-16.143c-8.916 0-16.144 7.227-16.144 16.143s7.228 16.143 16.144 16.143Zm7.7-16.143a7.7 7.7 0 1 1-15.4 0 7.7 7.7 0 0 1 15.4 0Zm-10.568 0a1.328 1.328 0 1 0 0-2.656 1.328 1.328 0 0 0 0 2.656Zm7.063-1.327a1.327 1.327 0 1 1-2.655 0 1.327 1.327 0 0 1 2.655 0Zm0 3.079c0 1.789-1.878 3.24-4.195 3.24s-4.195-1.451-4.195-3.24h8.39Z" fill="#ABCCF6"></path><rect x="527.073" y="9.874" width="32.287" height="32.287" rx="16.143" fill="#3C4043"></rect><rect x="535.103" y="20.172" width="16.227" height="11.69" rx="1.512" stroke="#fff" stroke-width="1.296"></rect><path d="M543.215 27.745V24.29M540.838 26.404l2.376-2.16 2.375 2.16" stroke="#fff" stroke-width="1.296" stroke-linecap="round" stroke-linejoin="round"></path><rect x="569.555" y="9.874" width="32.287" height="32.287" rx="16.143" fill="#3C4043"></rect><g clip-path="url(#a)"><path d="M590.358 19.956c-.248 0-.483.057-.694.16-.144-.814-.823-1.432-1.636-1.432-.256 0-.498.061-.715.17-.179-.763-.835-1.331-1.615-1.331s-1.436.568-1.616 1.331a1.583 1.583 0 0 0-.714-.17c-.918 0-1.664.786-1.664 1.752v4.282a1.591 1.591 0 0 0-.666-.146c-.918 0-1.664.786-1.664 1.752v3.602c0 2.53 3.254 4.59 5.658 4.59h2.63c2.404 0 4.36-2.06 4.36-4.59v-8.219c0-.966-.747-1.752-1.664-1.752Zm.665 9.97c0 1.951-1.508 3.539-3.361 3.539h-2.63c-1.854 0-4.66-1.588-4.66-3.539v-3.602c0-.387.299-.701.666-.701.367 0 .666.314.666.7v2.803h.998v-8.69c0-.386.299-.7.666-.7.367 0 .665.314.665.7v5.537h.999v-6.698c0-.387.299-.7.666-.7.367 0 .665.313.665.7v6.698h.999v-5.537c0-.386.299-.7.666-.7.367 0 .665.314.665.7v5.537h.999v-4.266c0-.386.299-.7.666-.7.367 0 .665.314.665.7v8.22Z" fill="#fff"></path></g><rect x="612.038" y="9.874" width="32.287" height="32.287" rx="16.143" fill="#3C4043"></rect><path d="M628.18 27.292a1.275 1.275 0 1 0 0-2.55 1.275 1.275 0 0 0 0 2.55ZM628.182 22.541a1.274 1.274 0 1 0 0-2.548 1.274 1.274 0 0 0 0 2.548ZM628.18 32.043a1.275 1.275 0 1 0 0-2.55 1.275 1.275 0 0 0 0 2.55Z" fill="#fff" stroke="#fff" stroke-width=".864" stroke-linecap="round" stroke-linejoin="round"></path><rect x="654.52" y="9.874" width="45.938" height="32.287" rx="16.143" fill="#FF4343"></rect><path d="m669.201 28.792-1.668-1.669a1.568 1.568 0 0 1-.464-1.185 1.568 1.568 0 0 1 .564-1.14 15.567 15.567 0 0 1 6.508-3.093c2.198-.49 4.477-.49 6.675 0a15.568 15.568 0 0 1 6.53 3.115 1.57 1.57 0 0 1 .459 1.776 1.578 1.578 0 0 1-.353.544l-1.669 1.668a1.574 1.574 0 0 1-2.069.156 10.123 10.123 0 0 0-1.953-1.173 1.574 1.574 0 0 1-.923-1.425v-1.412c-2.184-.601-4.49-.601-6.675 0v1.412a1.573 1.573 0 0 1-.923 1.425c-.693.316-1.348.71-1.953 1.173a1.571 1.571 0 0 1-2.086-.172Z" fill="#fff"></path><circle cx="805.86" cy="26.017" r="6.797" stroke="#fff" stroke-width="1.699"></circle><path fill-rule="evenodd" clip-rule="evenodd" d="M805.86 23.47a.85.85 0 1 0 0-1.7.85.85 0 0 0 0 1.7Zm.85 5.948V24.32h-1.7v5.098h1.7Z" fill="#fff"></path><path d="M851.363 31.681v-1.258c0-.668-.259-1.308-.719-1.78a2.424 2.424 0 0 0-1.736-.738h-4.909c-.651 0-1.275.265-1.735.738a2.548 2.548 0 0 0-.719 1.78v1.259M846.643 25.263a2.454 2.454 0 1 0 0-4.908 2.454 2.454 0 0 0 0 4.908ZM855.14 31.681v-1.286a3.06 3.06 0 0 0-.422-1.575c-.274-.45-.656-.772-1.088-.915M850.608 20.354c.54.14 1.019.457 1.36.9a2.549 2.549 0 0 1 0 3.108c-.341.445-.82.762-1.36.901M896.433 28.142c0 .375-.155.735-.431 1a1.505 1.505 0 0 1-1.042.416h-8.836l-2.946 2.832V21.06c0-.375.156-.736.432-1.001a1.503 1.503 0 0 1 1.041-.415h10.309c.391 0 .765.15 1.042.415.276.265.431.626.431 1.001v7.08ZM885.727 24.743h7.647M885.727 22.195h7.647M885.727 27.293h7.647" stroke="#fff" stroke-width="1.699" stroke-linecap="round" stroke-linejoin="round"></path><path stroke="#fff" stroke-width="1.105" d="M925.024 27.495h4.908v4.908h-4.908z"></path><circle cx="934.994" cy="29.949" r="2.454" stroke="#fff" stroke-width="1.105"></circle><path d="m927.802 24.899 3.042-4.79 3.042 4.79h-6.084Z" stroke="#fff" stroke-width="1.105"></path><defs><clipPath id="a"><path fill="#fff" transform="translate(577.627 17.521)" d="M0 0h16.143v16.993H0z"></path></clipPath></defs></svg>